<?xml version="1.0" standalone="no"?>
<!DOCTYPE svg PUBLIC "-//W3C//DTD SVG 20010904//EN"
 "http://www.w3.org/TR/2001/REC-SVG-20010904/DTD/svg10.dtd">
<svg version="1.0" xmlns="http://www.w3.org/2000/svg"
 width="800.000000pt" height="1280.000000pt" viewBox="0 0 800.000000 1280.000000"
 preserveAspectRatio="xMidYMid meet">
<metadata>
Created by potrace 1.15, written by Peter Selinger 2001-2017
</metadata>
<g transform="translate(0.000000,1280.000000) scale(0.100000,-0.100000)"
fill="#000000" stroke="none">
<path d="M3774 12512 c-32 -51 -213 -410 -279 -552 -172 -368 -405 -933 -392
-947 2 -2 26 6 52 17 62 27 69 19 12 -14 l-45 -27 -71 -212 c-218 -655 -339
-1259 -393 -1957 -17 -228 -15 -845 5 -1080 l15 -185 -152 -155 c-83 -85 -185
-198 -227 -250 -254 -319 -407 -636 -486 -1007 -26 -121 -27 -142 -27 -383 0
-235 2 -265 27 -390 51 -258 173 -607 255 -728 7 -10 43 9 148 76 351 224 732
437 763 427 14 -4 24 0 33 16 13 22 239 139 270 139 9 0 72 28 140 63 139 70
267 116 420 148 82 18 137 22 273 23 194 0 304 -18 525 -85 48 -15 454 -213
603 -295 157 -86 396 -226 469 -276 31 -21 59 -38 62 -38 21 0 132 280 181
454 68 241 80 333 79 606 0 228 -2 254 -27 373 -38 177 -87 318 -167 482 -102
210 -185 337 -336 515 -80 96 -273 288 -380 379 l-71 60 -6 293 c-22 995 -192
1954 -539 3046 -6 21 -23 41 -44 54 -19 11 -34 26 -34 32 0 16 -193 468 -300
701 -96 210 -328 683 -339 689 -4 3 -12 -3 -17 -12z"/>
<path d="M4006 5149 c-107 -11 -229 -43 -295 -76 -51 -26 -60 -37 -128 -148
-78 -129 -83 -141 -114 -285 -19 -85 -22 -145 -29 -575 -8 -472 -13 -531 -45
-602 -8 -17 -15 -35 -15 -41 0 -5 -17 -56 -39 -113 -21 -57 -42 -115 -45 -129
-20 -72 205 368 248 485 l33 90 17 375 18 375 34 72 c58 121 120 161 182 117
78 -54 114 -292 77 -503 -31 -174 -70 -275 -263 -677 -141 -294 -192 -429
-216 -569 -18 -100 -20 -263 -6 -371 5 -38 12 -101 15 -140 3 -38 13 -112 20
-165 28 -188 45 -459 35 -544 -6 -44 -15 -120 -20 -170 -6 -49 -14 -126 -19
-170 -6 -44 -10 -89 -10 -100 0 -23 68 222 94 340 10 44 25 105 34 135 13 46
16 100 14 330 -2 151 -7 343 -11 425 -18 320 19 448 136 471 27 5 31 2 52 -40
19 -40 21 -56 15 -114 -11 -113 -49 -356 -85 -542 -24 -126 -24 -164 -6 -351
8 -79 20 -218 26 -309 6 -91 15 -210 20 -265 5 -55 12 -140 15 -190 4 -49 10
-129 14 -176 9 -93 8 -103 -15 -254 -15 -96 -69 -324 -100 -413 -19 -57 -18
-63 5 -25 31 50 118 251 146 338 79 244 85 353 56 1030 -12 270 -19 519 -15
554 5 49 13 70 34 94 34 38 47 31 79 -44 21 -48 22 -56 11 -192 -6 -78 -15
-160 -21 -182 -5 -22 -12 -89 -15 -150 -8 -138 13 -302 61 -475 50 -180 136
-405 121 -315 -29 170 -27 149 -46 400 -12 150 -11 172 11 360 29 245 31 519
6 662 -10 53 -50 186 -97 317 -112 318 -116 331 -136 431 -33 167 -16 438 32
513 18 27 74 63 87 55 5 -3 17 -25 28 -50 17 -40 18 -63 14 -247 -8 -310 24
-590 91 -816 32 -106 139 -348 150 -338 2 3 -3 22 -11 42 -21 49 -69 255 -89
381 -24 147 -25 350 -1 545 13 107 20 221 19 325 -1 147 -5 185 -55 465 -52
298 -53 309 -54 500 0 188 1 197 25 245 31 62 85 94 120 73 29 -17 58 -76 71
-141 9 -51 1 -163 -32 -428 -18 -149 -20 -434 -3 -519 20 -95 114 -380 126
-380 5 0 7 4 4 9 -10 15 -44 310 -51 436 -4 74 -2 153 5 205 12 90 13 94 61
295 26 108 32 151 33 255 2 182 -25 334 -78 441 -49 100 -90 137 -154 141 -24
1 -46 6 -48 10 -6 9 -17 9 -128 -3z"/>
</g>
</svg>
